<svg width="56" height="56" viewBox="0 0 56 56" fill="none" xmlns="http://www.w3.org/2000/svg">
<path d="M0 17.4552V0.45221C0 0.20246 0.204156 0 0.455996 0H50.0423C50.4475 0 50.6514 0.48491 50.3663 0.77041L19.4003 31.7779C19.1137 32.0649 18.6203 31.8636 18.6203 31.4596V18.3596C18.6203 18.1098 18.4162 17.9074 18.1643 17.9074H0.455996C0.204156 17.9074 0 17.7049 0 17.4552Z" fill="#019EFF"/>
<path d="M37.6966 55.3895H54.8421C55.0939 55.3895 55.2981 55.187 55.2981 54.9373V5.16014C55.2981 4.75734 54.8071 4.55555 54.5198 4.84027L23.2455 35.8326C22.958 36.1174 23.1615 36.6046 23.5678 36.6046H36.7846C37.0365 36.6046 37.2406 36.8071 37.2406 37.0568V54.9373C37.2406 55.187 37.4448 55.3895 37.6966 55.3895Z" fill="#019EFF"/>
</svg>
